<?xml version="1.0" encoding="UTF-8" standalone="no"?>
<!DOCTYPE svg PUBLIC "-//W3C//DTD SVG 1.1//EN"
 "http://www.w3.org/Graphics/SVG/1.1/DTD/svg11.dtd">
<!-- Generated by graphviz version 3.0.0 (20220226.1711)
 -->
<!-- Pages: 1 -->
<svg width="523pt" height="260pt"
 viewBox="0.00 0.00 522.73 260.00" xmlns="http://www.w3.org/2000/svg" xmlns:xlink="http://www.w3.org/1999/xlink">
<g id="graph0" class="graph" transform="scale(1 1) rotate(0) translate(4 256)">
<polygon fill="white" stroke="transparent" points="-4,4 -4,-256 518.73,-256 518.73,4 -4,4"/>
<!-- [root] aws_instance.tf&#45;ec2 (expand) -->
<g id="node1" class="node">
<title>[root] aws_instance.tf&#45;ec2 (expand)</title>
<polygon fill="none" stroke="black" points="246.86,-108 119.86,-108 119.86,-72 246.86,-72 246.86,-108"/>
<text text-anchor="middle" x="183.36" y="-86.3" font-family="Times New Roman,serif" font-size="14.00">aws_instance.tf&#45;ec2</text>
</g>
<!-- [root] provider[&quot;registry.terraform.io/hashicorp/aws&quot;] -->
<g id="node3" class="node">
<title>[root] provider[&quot;registry.terraform.io/hashicorp/aws&quot;]</title>
<polygon fill="none" stroke="black" points="257.36,-36 0.14,-18 257.36,0 514.59,-18 257.36,-36"/>
<text text-anchor="middle" x="257.36" y="-14.3" font-family="Times New Roman,serif" font-size="14.00">provider[&quot;registry.terraform.io/hashicorp/aws&quot;]</text>
</g>
<!-- [root] aws_instance.tf&#45;ec2 (expand)&#45;&gt;[root] provider[&quot;registry.terraform.io/hashicorp/aws&quot;] -->
<g id="edge1" class="edge">
<title>[root] aws_instance.tf&#45;ec2 (expand)&#45;&gt;[root] provider[&quot;registry.terraform.io/hashicorp/aws&quot;]</title>
<path fill="none" stroke="black" d="M201.66,-71.7C211.14,-62.73 222.84,-51.65 233.07,-41.98"/>
<polygon fill="black" stroke="black" points="235.69,-44.32 240.55,-34.91 230.88,-39.24 235.69,-44.32"/>
</g>
<!-- [root] aws_s3_bucket.tf&#45;s3 (expand) -->
<g id="node2" class="node">
<title>[root] aws_s3_bucket.tf&#45;s3 (expand)</title>
<polygon fill="none" stroke="black" points="397.86,-108 264.86,-108 264.86,-72 397.86,-72 397.86,-108"/>
<text text-anchor="middle" x="331.36" y="-86.3" font-family="Times New Roman,serif" font-size="14.00">aws_s3_bucket.tf&#45;s3</text>
</g>
<!-- [root] aws_s3_bucket.tf&#45;s3 (expand)&#45;&gt;[root] provider[&quot;registry.terraform.io/hashicorp/aws&quot;] -->
<g id="edge2" class="edge">
<title>[root] aws_s3_bucket.tf&#45;s3 (expand)&#45;&gt;[root] provider[&quot;registry.terraform.io/hashicorp/aws&quot;]</title>
<path fill="none" stroke="black" d="M313.07,-71.7C303.59,-62.73 291.88,-51.65 281.65,-41.98"/>
<polygon fill="black" stroke="black" points="283.85,-39.24 274.18,-34.91 279.04,-44.32 283.85,-39.24"/>
</g>
<!-- [root] provider[&quot;registry.terraform.io/hashicorp/aws&quot;] (close) -->
<g id="node4" class="node">
<title>[root] provider[&quot;registry.terraform.io/hashicorp/aws&quot;] (close)</title>
<ellipse fill="none" stroke="black" cx="257.36" cy="-162" rx="232.86" ry="18"/>
<text text-anchor="middle" x="257.36" y="-158.3" font-family="Times New Roman,serif" font-size="14.00">[root] provider[&quot;registry.terraform.io/hashicorp/aws&quot;] (close)</text>
</g>
<!-- [root] provider[&quot;registry.terraform.io/hashicorp/aws&quot;] (close)&#45;&gt;[root] aws_instance.tf&#45;ec2 (expand) -->
<g id="edge3" class="edge">
<title>[root] provider[&quot;registry.terraform.io/hashicorp/aws&quot;] (close)&#45;&gt;[root] aws_instance.tf&#45;ec2 (expand)</title>
<path fill="none" stroke="black" d="M239.07,-143.7C229.93,-135.05 218.72,-124.45 208.76,-115.03"/>
<polygon fill="black" stroke="black" points="211.12,-112.43 201.45,-108.1 206.31,-117.52 211.12,-112.43"/>
</g>
<!-- [root] provider[&quot;registry.terraform.io/hashicorp/aws&quot;] (close)&#45;&gt;[root] aws_s3_bucket.tf&#45;s3 (expand) -->
<g id="edge4" class="edge">
<title>[root] provider[&quot;registry.terraform.io/hashicorp/aws&quot;] (close)&#45;&gt;[root] aws_s3_bucket.tf&#45;s3 (expand)</title>
<path fill="none" stroke="black" d="M275.66,-143.7C284.8,-135.05 296,-124.45 305.96,-115.03"/>
<polygon fill="black" stroke="black" points="308.42,-117.52 313.28,-108.1 303.61,-112.43 308.42,-117.52"/>
</g>
<!-- [root] root -->
<g id="node5" class="node">
<title>[root] root</title>
<ellipse fill="none" stroke="black" cx="257.36" cy="-234" rx="49.29" ry="18"/>
<text text-anchor="middle" x="257.36" y="-230.3" font-family="Times New Roman,serif" font-size="14.00">[root] root</text>
</g>
<!-- [root] root&#45;&gt;[root] provider[&quot;registry.terraform.io/hashicorp/aws&quot;] (close) -->
<g id="edge5" class="edge">
<title>[root] root&#45;&gt;[root] provider[&quot;registry.terraform.io/hashicorp/aws&quot;] (close)</title>
<path fill="none" stroke="black" d="M257.36,-215.7C257.36,-207.98 257.36,-198.71 257.36,-190.11"/>
<polygon fill="black" stroke="black" points="260.86,-190.1 257.36,-180.1 253.86,-190.1 260.86,-190.1"/>
</g>
</g>
</svg>
